<svg t="1670380248234" class="icon" viewBox="0 0 1024 1024" version="1.1" xmlns="http://www.w3.org/2000/svg" p-id="2376" width="16" height="16"><path d="M422.4 750.933333 422.4 750.933333 422.4 750.933333zM512 0C230.4 0 0 230.4 0 512s230.4 512 512 512 512-230.4 512-512S793.6 0 512 0zM512 960C264.533333 960 64 759.466667 64 512S264.533333 64 512 64 960 264.533333 960 512 759.466667 960 512 960zM477.866667 234.666667l72.533333 0 0 384-72.533333 0 0-384ZM477.866667 725.333333l72.533333 0 0 72.533333-72.533333 0 0-72.533333Z" p-id="2377"></path></svg>